<?xml version="1.0" encoding="utf-8"?>
<!-- Generator: Adobe Illustrator 24.3.0, SVG Export Plug-In . SVG Version: 6.00 Build 0)  -->
<svg version="1.1" id="Ebene_1" xmlns="http://www.w3.org/2000/svg" xmlns:xlink="http://www.w3.org/1999/xlink" x="0px" y="0px"
	 viewBox="0 0 532 173" style="enable-background:new 0 0 532 173;" xml:space="preserve">
<style type="text/css">
	.st0{fill:#D72305;}
</style>
<g>
	<path class="st0" d="M5.05,39.78V3.71c0-0.6,0.51-1.09,1.14-1.09h5.69c0.63,0,1.14,0.49,1.14,1.09v13.66
		c0,0.33,0.23,0.55,0.57,0.55h8.53c0.34,0,0.57-0.22,0.57-0.55V3.71c0-0.6,0.51-1.09,1.14-1.09h5.69c0.63,0,1.14,0.49,1.14,1.09
		v36.07c0,0.6-0.51,1.09-1.14,1.09h-5.69c-0.63,0-1.14-0.49-1.14-1.09V26.12c0-0.33-0.23-0.55-0.57-0.55h-8.53
		c-0.34,0-0.57,0.22-0.57,0.55v13.66c0,0.6-0.8,1.09-1.42,1.09h-5.4C5.56,40.87,5.05,40.38,5.05,39.78z"/>
	<path class="st0" d="M40.07,37.16c-1.82-2.4-2.5-5.14-2.5-9.95c0-4.81,0.68-7.54,2.5-9.95c1.99-2.68,5.52-4.32,9.5-4.32
		s7.51,1.64,9.5,4.32c1.82,2.4,2.5,5.14,2.5,9.95c0,4.81-0.68,7.54-2.5,9.95c-1.99,2.68-5.52,4.32-9.5,4.32S42.06,39.84,40.07,37.16
		z M53.15,33.06c0.68-0.93,0.91-2.35,0.91-5.85s-0.23-4.92-0.91-5.85c-0.74-0.93-1.76-1.31-3.58-1.31c-1.76,0-2.84,0.38-3.58,1.31
		c-0.68,0.93-0.91,2.35-0.91,5.85s0.23,4.92,0.91,5.85c0.74,0.93,1.82,1.31,3.58,1.31C51.38,34.37,52.41,33.99,53.15,33.06z"/>
	<path class="st0" d="M69.4,37.16c-1.82-2.4-2.5-5.14-2.5-9.95c0-4.81,0.68-7.54,2.5-9.95c1.99-2.68,5.52-4.32,9.5-4.32
		c3.47,0,6.25,0.82,8.19,2.46c2.22,1.86,3.47,4.86,3.47,8.25c0,0.66-0.4,1.09-0.97,1.09h-5.23c-0.63,0-1.02-0.33-1.08-0.87
		c-0.23-1.53-0.57-2.35-1.19-2.95c-0.68-0.6-1.71-0.87-3.18-0.87c-1.76,0-2.84,0.38-3.58,1.31c-0.68,0.93-0.91,2.35-0.91,5.85
		s0.23,4.92,0.91,5.85c0.74,0.93,1.82,1.31,3.58,1.31c1.59,0,2.5-0.22,3.13-0.71c0.68-0.55,0.97-1.26,1.25-3.22
		c0.06-0.49,0.45-0.76,1.08-0.76h5.23c0.57,0,0.97,0.44,0.97,1.09c0,3.06-0.97,5.74-2.67,7.54c-1.99,2.08-5.12,3.17-8.98,3.17
		C74.92,41.48,71.39,39.84,69.4,37.16z"/>
	<path class="st0" d="M96.46,39.78V3.11c0-0.6,0.51-1.09,1.14-1.09h5.12c0.63,0,1.14,0.49,1.14,1.09v9.84c0,0.71,0.4,1.26,1.08,1.26
		c0.57,0,2.05-1.26,4.89-1.26c6.14,0,9.95,3.83,9.95,10.11v16.72c0,0.6-0.51,1.09-1.14,1.09h-5.12c-0.63,0-1.14-0.49-1.14-1.09
		V23.61c0-2.35-1.54-3.77-4.26-3.77c-2.67,0-4.26,1.37-4.26,3.55v16.39c0,0.6-0.51,1.09-1.14,1.09H97.6
		C96.97,40.87,96.46,40.38,96.46,39.78z"/>
	<path class="st0" d="M124.88,31.8c0-0.6,0.45-0.98,1.14-0.98h4.89c0.68,0,1.14,0.38,1.14,0.98c0,2.35,1.48,3.5,4.49,3.5
		c2.79,0,4.21-0.82,4.21-2.4c0-1.42-1.25-2.08-5.74-3.06c-6.2-1.31-9.1-4.21-9.1-8.96c0-4.7,4.38-7.92,10.63-7.92
		c6.6,0,10.8,3.33,10.8,8.63c0,0.6-0.45,0.98-1.14,0.98h-4.61c-0.68,0-1.14-0.38-1.14-0.98c0-1.69-1.36-2.62-3.87-2.62
		c-2.05,0-3.35,0.82-3.35,2.13c0,1.37,1.02,1.91,5.8,3.06c6.82,1.59,9.1,3.72,9.1,8.58c0,5.46-4.32,8.74-11.6,8.74
		C129.2,41.48,124.88,37.87,124.88,31.8z"/>
	<path class="st0" d="M155.29,37.16c-1.82-2.4-2.5-5.14-2.5-9.95c0-4.81,0.68-7.54,2.5-9.95c1.99-2.68,5.52-4.32,9.5-4.32
		c3.47,0,6.25,0.82,8.19,2.46c2.22,1.86,3.47,4.86,3.47,8.25c0,0.66-0.4,1.09-0.97,1.09h-5.23c-0.63,0-1.02-0.33-1.08-0.87
		c-0.23-1.53-0.57-2.35-1.19-2.95c-0.68-0.6-1.71-0.87-3.18-0.87c-1.76,0-2.84,0.38-3.58,1.31c-0.68,0.93-0.91,2.35-0.91,5.85
		s0.23,4.92,0.91,5.85c0.74,0.93,1.82,1.31,3.58,1.31c1.59,0,2.5-0.22,3.13-0.71c0.68-0.55,0.97-1.26,1.25-3.22
		c0.06-0.49,0.45-0.76,1.08-0.76h5.23c0.57,0,0.97,0.44,0.97,1.09c0,3.06-0.97,5.74-2.67,7.54c-1.99,2.08-5.12,3.17-8.98,3.17
		C160.81,41.48,157.28,39.84,155.29,37.16z"/>
	<path class="st0" d="M182.35,39.78V3.11c0-0.6,0.51-1.09,1.14-1.09h5.12c0.63,0,1.14,0.49,1.14,1.09v9.84
		c0,0.71,0.4,1.26,1.08,1.26c0.57,0,2.05-1.26,4.89-1.26c6.14,0,9.95,3.83,9.95,10.11v16.72c0,0.6-0.51,1.09-1.14,1.09h-5.12
		c-0.63,0-1.14-0.49-1.14-1.09V23.61c0-2.35-1.54-3.77-4.26-3.77c-2.67,0-4.26,1.37-4.26,3.55v16.39c0,0.6-0.51,1.09-1.14,1.09
		h-5.12C182.86,40.87,182.35,40.38,182.35,39.78z"/>
	<path class="st0" d="M235.79,14.64v25.14c0,0.6-0.51,1.09-1.14,1.09h-2.84c-0.45,0-0.74-0.11-1.02-0.38
		c-0.45-0.6-0.74-1.42-1.54-1.42c-1.36,0-2.27,2.4-6.82,2.4c-6.14,0-9.95-3.83-9.95-10.11V14.64c0-0.6,0.51-1.09,1.14-1.09h5.12
		c0.63,0,1.14,0.49,1.14,1.09v16.18c0,2.4,1.59,3.77,4.26,3.77c2.67,0,4.26-1.37,4.26-3.55V14.64c0-0.6,0.51-1.09,1.14-1.09h5.12
		C235.28,13.55,235.79,14.04,235.79,14.64z"/>
	<path class="st0" d="M243.17,39.78V3.11c0-0.6,0.51-1.09,1.14-1.09h5.12c0.63,0,1.14,0.49,1.14,1.09v36.67
		c0,0.6-0.51,1.09-1.14,1.09h-5.12C243.68,40.87,243.17,40.38,243.17,39.78z"/>
	<path class="st0" d="M259.43,37.16c-1.82-2.4-2.5-5.14-2.5-9.95c0-4.81,0.68-7.54,2.5-9.95c1.99-2.68,5.51-4.32,9.49-4.32
		c7.45,0,11.6,4.65,11.6,12.95v2.4c0,0.6-0.51,1.09-1.14,1.09h-14.73c-0.34,0-0.57,0.22-0.57,0.55c0,3.61,1.48,5.25,4.83,5.25
		c2.33,0,3.7-0.82,4.38-2.62c0.23-0.6,0.68-0.93,1.31-0.93h4.83c0.74,0,1.14,0.49,0.97,1.2c-1.42,5.47-5.63,8.63-11.49,8.63
		C264.95,41.48,261.42,39.84,259.43,37.16z M273.19,23.93c0.34,0,0.57-0.16,0.57-0.49c0-2.68-2.1-4.7-4.83-4.7
		c-3.01,0-4.95,1.86-4.95,4.7c0,0.33,0.23,0.49,0.57,0.49H273.19z"/>
	<path class="st0" d="M299.11,39.78V3.71c0-0.6,0.51-1.09,1.14-1.09h5.63c0.63,0,1.14,0.49,1.14,1.09V17.1
		c0,0.22,0.12,0.33,0.29,0.33c0.11,0,0.23-0.11,0.4-0.33l9.55-13.94c0.17-0.27,0.4-0.55,1.25-0.55h6.2c0.74,0,1.19,0.55,1.19,1.2
		c0,0.27-0.06,0.55-0.23,0.77l-11.37,15.63c-0.23,0.33-0.34,0.6-0.34,0.87c0,0.33,0.11,0.6,0.34,0.93l11.54,16.61
		c0.23,0.33,0.34,0.6,0.34,1.04c0,0.66-0.51,1.2-1.42,1.2h-6.14c-0.85,0-1.14-0.38-1.48-0.87l-9.32-14.65
		c-0.17-0.27-0.34-0.49-0.51-0.49c-0.17,0-0.29,0.11-0.29,0.33v14.59c0,0.6-0.51,1.09-1.14,1.09h-5.63
		C299.62,40.87,299.11,40.38,299.11,39.78z"/>
	<path class="st0" d="M328.1,32.46c0-4.26,3.24-8.53,9.78-8.53h5.8c0.34,0,0.57-0.22,0.57-0.55v-0.87c0-2.24-1.88-3.33-4.38-3.33
		c-1.19,0-3.52,0.27-3.92,1.8c-0.23,0.93-0.51,1.04-1.54,1.04h-4.09c-0.62,0-1.14-0.49-1.14-1.09c0-4.15,4.15-7.98,10.98-7.98
		c6.88,0,11.37,3.55,11.37,9.89v16.94c0,0.6-0.51,1.09-1.14,1.09h-2.84c-0.34,0-0.68-0.11-0.8-0.38c-0.23-0.44-0.62-1.09-1.31-1.09
		c-1.03,0-2.56,2.08-7.39,2.08C332.19,41.48,328.1,38.2,328.1,32.46z M344.53,31.58v-1.31c0-0.33-0.23-0.55-0.57-0.55h-5.29
		c-2.45,0-3.36,1.26-3.36,2.73c0,2.02,1.71,2.9,3.76,2.9C342.03,35.36,344.53,34.43,344.53,31.58z"/>
	<path class="st0" d="M358.62,39.78V14.64c0-0.6,0.51-1.09,1.14-1.09h2.84c0.45,0,1.02,0.27,1.2,0.71c0.34,0.93,0.57,2.3,1.53,2.3
		c1.76,0,2.5-3.01,8.13-3.01h1.94c0.62,0,1.14,0.49,1.14,1.09v5.19c0,0.6-0.51,1.09-1.14,1.09h-1.99c-4.27,0-7.39,1.91-7.39,6.07
		v12.79c0,0.6-0.51,1.09-1.14,1.09h-5.12C359.13,40.87,358.62,40.38,358.62,39.78z"/>
	<path class="st0" d="M381.08,39.78V3.11c0-0.6,0.51-1.09,1.14-1.09h5.12c0.63,0,1.14,0.49,1.14,1.09v36.67
		c0,0.6-0.51,1.09-1.14,1.09h-5.12C381.59,40.87,381.08,40.38,381.08,39.78z"/>
	<path class="st0" d="M393.87,31.8c0-0.6,0.45-0.98,1.14-0.98h4.89c0.68,0,1.14,0.38,1.14,0.98c0,2.35,1.48,3.5,4.49,3.5
		c2.79,0,4.21-0.82,4.21-2.4c0-1.42-1.25-2.08-5.74-3.06c-6.2-1.31-9.1-4.21-9.1-8.96c0-4.7,4.38-7.92,10.63-7.92
		c6.6,0,10.8,3.33,10.8,8.63c0,0.6-0.45,0.98-1.14,0.98h-4.6c-0.68,0-1.14-0.38-1.14-0.98c0-1.69-1.36-2.62-3.87-2.62
		c-2.05,0-3.36,0.82-3.36,2.13c0,1.37,1.02,1.91,5.8,3.06c6.82,1.59,9.1,3.72,9.1,8.58c0,5.46-4.32,8.74-11.6,8.74
		C398.19,41.48,393.87,37.87,393.87,31.8z"/>
	<path class="st0" d="M422.8,39.78V14.64c0-0.6,0.51-1.09,1.14-1.09h2.84c0.45,0,1.02,0.27,1.2,0.71c0.34,0.93,0.57,2.3,1.53,2.3
		c1.76,0,2.5-3.01,8.13-3.01h1.94c0.62,0,1.14,0.49,1.14,1.09v5.19c0,0.6-0.51,1.09-1.14,1.09h-1.99c-4.27,0-7.39,1.91-7.39,6.07
		v12.79c0,0.6-0.51,1.09-1.14,1.09h-5.12C423.31,40.87,422.8,40.38,422.8,39.78z"/>
	<path class="st0" d="M468.28,14.64v25.14c0,0.6-0.51,1.09-1.14,1.09h-2.85c-0.45,0-0.74-0.11-1.02-0.38
		c-0.45-0.6-0.74-1.42-1.54-1.42c-1.36,0-2.27,2.4-6.82,2.4c-6.14,0-9.95-3.83-9.95-10.11V14.64c0-0.6,0.51-1.09,1.14-1.09h5.12
		c0.62,0,1.14,0.49,1.14,1.09v16.18c0,2.4,1.59,3.77,4.26,3.77c2.67,0,4.26-1.37,4.26-3.55V14.64c0-0.6,0.51-1.09,1.14-1.09h5.12
		C467.77,13.55,468.28,14.04,468.28,14.64z"/>
	<path class="st0" d="M475.67,39.78V3.11c0-0.6,0.51-1.09,1.14-1.09h5.12c0.63,0,1.14,0.49,1.14,1.09v9.84
		c0,0.71,0.4,1.26,1.08,1.26c0.57,0,2.05-1.26,4.89-1.26c6.14,0,9.95,3.83,9.95,10.11v16.72c0,0.6-0.51,1.09-1.14,1.09h-5.12
		c-0.62,0-1.14-0.49-1.14-1.09V23.61c0-2.35-1.53-3.77-4.26-3.77c-2.67,0-4.27,1.37-4.27,3.55v16.39c0,0.6-0.51,1.09-1.14,1.09
		h-5.12C476.18,40.87,475.67,40.38,475.67,39.78z"/>
	<path class="st0" d="M507.56,37.16c-1.82-2.4-2.5-5.14-2.5-9.95c0-4.81,0.68-7.54,2.5-9.95c1.99-2.68,5.51-4.32,9.5-4.32
		c7.45,0,11.6,4.65,11.6,12.95v2.4c0,0.6-0.51,1.09-1.14,1.09h-14.73c-0.34,0-0.57,0.22-0.57,0.55c0,3.61,1.48,5.25,4.83,5.25
		c2.33,0,3.69-0.82,4.38-2.62c0.23-0.6,0.68-0.93,1.31-0.93h4.83c0.74,0,1.14,0.49,0.97,1.2c-1.42,5.47-5.63,8.63-11.48,8.63
		C513.07,41.48,509.55,39.84,507.56,37.16z M521.32,23.93c0.34,0,0.57-0.16,0.57-0.49c0-2.68-2.1-4.7-4.83-4.7
		c-3.01,0-4.95,1.86-4.95,4.7c0,0.33,0.23,0.49,0.57,0.49H521.32z"/>
</g>
<g>
	<path class="st0" d="M5.45,90.29V64.33c0-0.6,0.51-1.09,1.14-1.09h1.36c0.63,0,1.14,0.49,1.14,1.09v25.96
		c0,4.37,3.75,8.25,8.59,8.25s8.59-3.88,8.59-8.25V64.33c0-0.6,0.51-1.09,1.14-1.09h1.36c0.63,0,1.14,0.49,1.14,1.09v25.96
		c0,6.5-5.46,11.75-12.22,11.75S5.45,96.79,5.45,90.29z"/>
	<path class="st0" d="M38.65,100.4V75.26c0-0.6,0.51-1.09,1.14-1.09h0.91c0.34,0,0.57,0.16,0.8,0.38c0.28,0.49,0.57,1.09,1.14,1.09
		c1.54,0,2.05-2.02,7.56-2.02c5.4,0,9.61,3.06,9.61,9.07v17.71c0,0.6-0.51,1.09-1.14,1.09h-1.08c-0.63,0-1.14-0.49-1.14-1.09V83.19
		c0-4.37-3.13-6.34-7.22-6.34S42,78.81,42,83.19v17.21c0,0.6-0.51,1.09-1.14,1.09h-1.08C39.16,101.49,38.65,101,38.65,100.4z"/>
	<path class="st0" d="M67.12,66.79v-3.22c0-0.44,0.4-0.87,0.91-0.87h3.3c0.51,0,0.91,0.44,0.91,0.87v3.22c0,0.49-0.4,0.87-0.91,0.87
		h-3.3C67.52,67.67,67.12,67.28,67.12,66.79z M70.25,101.49h-1.14c-0.8,0-1.14-0.49-1.14-1.09V75.26c0-0.6,0.34-1.09,1.14-1.09h1.14
		c0.8,0,1.14,0.49,1.14,1.09v25.14C71.39,101,71.05,101.49,70.25,101.49z"/>
	<path class="st0" d="M86.79,100.67l-9.84-24.7c-0.17-0.38-0.23-0.66-0.23-0.87c0-0.49,0.4-0.93,1.08-0.93h1.48
		c0.51,0,0.85,0.22,1.08,0.82l8.47,22.02c0.11,0.33,0.28,0.44,0.45,0.44s0.4-0.11,0.51-0.44l8.47-22.02
		c0.23-0.6,0.57-0.82,1.08-0.82h1.48c0.68,0,1.08,0.44,1.08,0.93c0,0.22-0.06,0.49-0.23,0.87l-9.84,24.7
		c-0.23,0.55-0.57,0.82-1.08,0.82h-2.9C87.36,101.49,87.02,101.22,86.79,100.67z"/>
	<path class="st0" d="M107.88,97.94c-1.82-2.68-2.44-5.25-2.44-10.11c0-4.43,0.68-6.99,2.62-9.89c1.88-2.79,5.06-4.32,9.04-4.32
		c7.11,0,11.49,4.59,11.49,11.97v2.46c0,0.6-0.51,1.09-1.14,1.09h-17.85c-0.34,0-0.57,0.22-0.57,0.55c0,5.85,2.96,9.13,8.19,9.13
		c3.64,0,6.54-1.37,7.62-5.14c0.17-0.6,0.68-0.93,1.31-0.93h1.14c0.68,0,1.08,0.44,0.97,1.09c-0.68,4.86-5.17,8.2-11.03,8.2
		C112.94,102.04,109.7,100.62,107.88,97.94z M124.43,86.08c0.34,0,0.57-0.22,0.57-0.55c0-5.57-2.84-8.69-7.85-8.69
		c-4.95,0-8.07,3.33-8.07,8.69c0,0.33,0.23,0.55,0.57,0.55H124.43z"/>
	<path class="st0" d="M136.02,100.4V75.26c0-0.6,0.51-1.09,1.14-1.09h0.74c0.63,0,0.97,0.33,1.14,1.09
		c0.17,0.71,0.17,1.91,1.02,1.91c1.48,0,2.5-3.01,7.68-3.01h0.68c0.63,0,1.14,0.49,1.14,1.09v1.15c0,0.6-0.51,1.09-1.14,1.09h-0.74
		c-3.64,0-8.3,1.97-8.3,9.24v13.66c0,0.6-0.51,1.09-1.14,1.09h-1.08C136.53,101.49,136.02,101,136.02,100.4z"/>
	<path class="st0" d="M151.71,92.59c0-0.6,0.51-1.09,1.14-1.09h1.14c0.63,0,1.14,0.49,1.14,1.09c0,3.99,2.84,6.39,7.62,6.39
		c4.72,0,7.45-1.75,7.45-4.81c0-3.06-1.82-4.26-8.24-5.52c-6.31-1.2-8.98-3.5-8.98-7.71c0-4.26,4.21-7.32,9.95-7.32
		c6.2,0,10.06,3.12,10.06,8.2c0,0.6-0.51,1.09-1.14,1.09h-1.14c-0.63,0-1.14-0.49-1.14-1.09c0-3.5-2.16-5.19-6.65-5.19
		c-3.98,0-6.37,1.64-6.37,4.32c0,2.51,1.65,3.55,7.96,4.97c6.99,1.59,9.1,3.5,9.1,8.25c0,4.81-4.26,7.87-10.86,7.87
		C155.92,102.04,151.71,98.43,151.71,92.59z"/>
	<path class="st0" d="M179.51,66.79v-3.22c0-0.44,0.4-0.87,0.91-0.87h3.3c0.51,0,0.91,0.44,0.91,0.87v3.22
		c0,0.49-0.4,0.87-0.91,0.87h-3.3C179.91,67.67,179.51,67.28,179.51,66.79z M182.63,101.49h-1.14c-0.8,0-1.14-0.49-1.14-1.09V75.26
		c0-0.6,0.34-1.09,1.14-1.09h1.14c0.8,0,1.14,0.49,1.14,1.09v25.14C183.77,101,183.43,101.49,182.63,101.49z"/>
	<path class="st0" d="M195.48,92.75V78.21c0-0.33-0.23-0.55-0.57-0.55h-4.61c-0.63,0-1.14-0.49-1.14-1.09v-1.04
		c0-0.6,0.51-1.09,1.14-1.09h4.61c0.34,0,0.57-0.22,0.57-0.55v-8.47c0-0.6,0.51-1.09,1.14-1.09h1.14c0.63,0,1.14,0.49,1.14,1.09
		v8.47c0,0.33,0.23,0.55,0.57,0.55h7.16c0.63,0,1.14,0.49,1.14,1.09v1.04c0,0.6-0.51,1.09-1.14,1.09h-7.16
		c-0.34,0-0.57,0.22-0.57,0.55v14.54c0,3.72,1.36,5.52,5.4,5.52h2.9c0.63,0,1.14,0.49,1.14,1.09v1.04c0,0.6-0.51,1.09-1.14,1.09
		h-2.9C198.38,101.49,195.48,99.03,195.48,92.75z"/>
	<path class="st0" d="M217.48,111.55c0-0.27,0.06-0.55,0.17-0.82l3.98-10.38c0.11-0.27,0.17-0.44,0.17-0.55
		c0-0.16-0.06-0.33-0.17-0.6l-10.41-23.23c-0.17-0.38-0.23-0.66-0.23-0.87c0-0.49,0.4-0.93,1.08-0.93h1.59
		c0.51,0,0.8,0.16,1.08,0.82l8.7,20c0.11,0.27,0.17,0.33,0.28,0.33s0.17-0.05,0.28-0.33l7.56-20c0.28-0.66,0.57-0.82,1.08-0.82h1.59
		c0.68,0,1.08,0.44,1.08,0.93c0,0.22-0.06,0.49-0.23,0.87l-14.21,35.63c-0.23,0.6-0.57,0.82-1.08,0.82h-1.25
		C217.82,112.42,217.48,112.09,217.48,111.55z"/>
	<path class="st0" d="M252.72,97.12c-1.48-2.29-1.99-4.37-1.99-9.29c0-4.92,0.45-7.05,1.99-9.29c2.1-3.06,5.46-4.92,9.61-4.92
		s7.62,1.8,9.61,4.92c1.53,2.24,1.99,4.37,1.99,9.29c0,4.92-0.45,7.05-1.99,9.29c-1.99,3.12-5.46,4.92-9.61,4.92
		S254.71,100.24,252.72,97.12z M269.32,94.61c0.8-1.59,1.03-3.06,1.03-6.78c0-3.72-0.23-5.19-1.03-6.78
		c-1.25-2.57-3.92-4.21-6.99-4.21s-5.69,1.64-6.99,4.21c-0.8,1.59-1.02,3.06-1.02,6.78c0,3.72,0.23,5.19,1.02,6.78
		c1.31,2.57,3.92,4.21,6.99,4.21S268.07,97.18,269.32,94.61z"/>
	<path class="st0" d="M283.82,100.4V78.21c0-0.33-0.23-0.55-0.57-0.55h-4.95c-0.63,0-1.14-0.49-1.14-1.09v-1.04
		c0-0.6,0.51-1.09,1.14-1.09h4.95c0.34,0,0.57-0.22,0.57-0.55v-0.98c0-6.28,3.76-10.22,9.67-10.22h0.28c0.63,0,1.14,0.49,1.14,1.09
		v0.87c0,0.6-0.51,1.09-1.14,1.09h-0.28c-3.92,0-6.26,2.68-6.26,7.16v0.98c0,0.33,0.23,0.55,0.57,0.55h6.48
		c0.63,0,1.14,0.49,1.14,1.09v1.04c0,0.6-0.51,1.09-1.14,1.09h-6.48c-0.34,0-0.57,0.22-0.57,0.55v22.19c0,0.6-0.51,1.09-1.14,1.09
		h-1.14C284.33,101.49,283.82,101,283.82,100.4z"/>
</g>
<g>
	<path class="st0" d="M2.32,161.26c0-0.22,0.06-0.44,0.11-0.6l10.8-36.01c0.17-0.55,0.57-0.82,1.08-0.82h2.84
		c0.51,0,0.91,0.27,1.08,0.82l10.8,36.01c0.06,0.16,0.11,0.38,0.11,0.6c0,0.44-0.4,0.82-1.19,0.82h-1.42
		c-0.51,0-0.91-0.27-1.08-0.82l-2.79-9.24c-0.17-0.55-0.57-0.77-1.08-0.77H9.88c-0.51,0-0.91,0.22-1.08,0.77l-2.79,9.24
		c-0.17,0.55-0.57,0.82-1.08,0.82H3.52C2.72,162.08,2.32,161.69,2.32,161.26z M20.74,147.87c0.34,0,0.57-0.16,0.45-0.6l-5.17-18.58
		c-0.06-0.22-0.11-0.33-0.23-0.33h-0.11c-0.11,0-0.17,0.11-0.23,0.33l-5.17,18.58c-0.11,0.44,0.11,0.6,0.45,0.6H20.74z"/>
	<path class="st0" d="M34.78,171.91v-36.07c0-0.6,0.51-1.09,1.14-1.09h0.91c0.4,0,0.63,0.11,0.85,0.49c0.4,0.71,0.85,1.04,1.36,1.04
		c1.36,0,1.99-2.08,6.54-2.08c4.04,0,7.28,1.64,8.93,4.48c1.42,2.57,1.93,5.19,1.93,9.73c0,4.7-0.51,7.27-1.93,9.73
		c-1.65,2.84-4.89,4.48-8.93,4.48c-4.44,0-5.12-1.64-6.31-1.64c-0.8,0-1.14,0.49-1.14,1.64v9.29c0,0.6-0.51,1.09-1.14,1.09h-1.08
		C35.29,173.01,34.78,172.51,34.78,171.91z M52.07,155.19c0.63-1.69,0.85-3.39,0.85-6.78c0-3.44-0.23-5.25-0.85-6.78
		c-1.25-2.95-3.18-4.21-6.48-4.21c-3.24,0-5.17,1.26-6.48,4.21c-0.63,1.53-0.85,3.33-0.85,6.78c0,3.39,0.23,5.08,0.85,6.78
		c1.19,2.95,3.18,4.21,6.48,4.21C48.88,159.4,50.87,158.14,52.07,155.19z"/>
	<path class="st0" d="M63.88,171.91v-36.07c0-0.6,0.51-1.09,1.14-1.09h0.91c0.4,0,0.63,0.11,0.85,0.49c0.4,0.71,0.85,1.04,1.36,1.04
		c1.36,0,1.99-2.08,6.54-2.08c4.04,0,7.28,1.64,8.93,4.48c1.42,2.57,1.93,5.19,1.93,9.73c0,4.7-0.51,7.27-1.93,9.73
		c-1.65,2.84-4.89,4.48-8.93,4.48c-4.44,0-5.12-1.64-6.31-1.64c-0.8,0-1.14,0.49-1.14,1.64v9.29c0,0.6-0.51,1.09-1.14,1.09h-1.08
		C64.4,173.01,63.88,172.51,63.88,171.91z M81.17,155.19c0.63-1.69,0.85-3.39,0.85-6.78c0-3.44-0.23-5.25-0.85-6.78
		c-1.25-2.95-3.18-4.21-6.48-4.21c-3.24,0-5.17,1.26-6.48,4.21c-0.63,1.53-0.85,3.33-0.85,6.78c0,3.39,0.23,5.08,0.85,6.78
		c1.19,2.95,3.18,4.21,6.48,4.21C77.98,159.4,79.97,158.14,81.17,155.19z"/>
	<path class="st0" d="M92.99,160.98v-36.61c0-0.6,0.51-1.09,1.14-1.09h1.14c0.63,0,1.14,0.49,1.14,1.09v36.61
		c0,0.6-0.51,1.09-1.14,1.09h-1.14C93.5,162.08,92.99,161.58,92.99,160.98z"/>
	<path class="st0" d="M104.01,127.37v-3.22c0-0.44,0.4-0.87,0.91-0.87h3.3c0.51,0,0.91,0.44,0.91,0.87v3.22
		c0,0.49-0.4,0.87-0.91,0.87h-3.3C104.41,128.25,104.01,127.87,104.01,127.37z M107.14,162.08H106c-0.8,0-1.14-0.49-1.14-1.09
		v-25.14c0-0.6,0.34-1.09,1.14-1.09h1.14c0.8,0,1.14,0.49,1.14,1.09v25.14C108.28,161.58,107.94,162.08,107.14,162.08z"/>
	<path class="st0" d="M118.17,158.52c-1.82-2.68-2.44-5.25-2.44-10.11c0-4.43,0.68-6.99,2.62-9.89c1.88-2.79,5.06-4.32,9.04-4.32
		c7.11,0,11.49,4.59,11.49,11.97v2.46c0,0.6-0.51,1.09-1.14,1.09h-17.85c-0.34,0-0.57,0.22-0.57,0.55c0,5.85,2.96,9.13,8.19,9.13
		c3.64,0,6.54-1.37,7.62-5.14c0.17-0.6,0.68-0.93,1.31-0.93h1.14c0.68,0,1.08,0.44,0.97,1.09c-0.68,4.86-5.17,8.2-11.03,8.2
		C123.23,162.62,119.99,161.2,118.17,158.52z M134.72,146.67c0.34,0,0.57-0.22,0.57-0.55c0-5.57-2.84-8.69-7.85-8.69
		c-4.95,0-8.07,3.33-8.07,8.69c0,0.33,0.23,0.55,0.57,0.55H134.72z"/>
	<path class="st0" d="M147.22,158.14c-1.42-2.46-1.93-5.03-1.93-9.73c0-4.7,0.51-7.27,1.93-9.73c1.65-2.84,4.89-4.48,8.93-4.48
		c4.44,0,5.12,1.64,6.31,1.64c0.8,0,1.14-0.49,1.14-1.64v-9.84c0-0.6,0.51-1.09,1.14-1.09h1.08c0.63,0,1.14,0.49,1.14,1.09v36.61
		c0,0.6-0.51,1.09-1.14,1.09h-0.91c-0.4,0-0.63-0.11-0.85-0.49c-0.4-0.71-0.85-1.04-1.36-1.04c-1.36,0-1.99,2.08-6.54,2.08
		C152.11,162.62,148.87,160.98,147.22,158.14z M162.63,155.19c0.63-1.53,0.85-3.17,0.85-6.78c0-3.39-0.23-5.08-0.85-6.78
		c-1.19-2.95-3.18-4.21-6.48-4.21s-5.29,1.26-6.48,4.21c-0.63,1.69-0.85,3.39-0.85,6.78c0,3.44,0.23,5.25,0.85,6.78
		c1.25,2.95,3.18,4.21,6.48,4.21C159.39,159.4,161.32,158.14,162.63,155.19z"/>
	<path class="st0" d="M185.93,151.15v-0.87c0-0.6,0.51-1.09,1.14-1.09h1.48c0.63,0,1.14,0.49,1.14,1.09v0.87
		c0,5.03,3.53,7.98,8.47,7.98c4.89,0,8.36-2.51,8.36-7.43c0-5.03-3.75-6.67-9.32-8.2c-4.95-1.37-10.18-4.04-10.18-10.6
		c0-6.61,5.74-9.62,11.43-9.62c6.37,0,11.09,3.77,11.09,10.38v0.71c0,0.6-0.51,1.09-1.14,1.09h-1.42c-0.63,0-1.14-0.49-1.14-1.09
		v-0.71c0-4.59-3.18-6.89-7.39-6.89c-4.49,0-7.56,1.97-7.56,6.12c0,4.59,4.49,6.34,9.67,7.76c5.29,1.48,9.84,4.32,9.84,11.04
		c0,7.05-5.91,10.93-12.22,10.93C191.16,162.62,185.93,158.69,185.93,151.15z"/>
	<path class="st0" d="M218.1,157.7c-1.82-2.68-1.99-5.36-1.99-9.29c0-3.93,0.17-6.61,1.99-9.29c1.99-2.95,5.29-4.92,9.61-4.92
		c3.13,0,5.86,0.82,7.73,2.46c1.93,1.75,2.96,4.32,2.96,6.83c0,0.6-0.34,1.09-0.97,1.09h-1.42c-0.51,0-1.08-0.27-1.08-0.87
		c0-1.75-0.68-3.61-2.1-4.81c-1.25-0.98-3.01-1.47-5.12-1.47c-3.13,0-5.69,1.47-6.99,4.21c-0.85,1.75-1.02,3.61-1.02,6.78
		c0,3.17,0.17,5.03,1.02,6.78c1.31,2.73,3.87,4.21,6.99,4.21c2.56,0,4.44-0.76,5.57-2.02c1.08-1.2,1.59-2.84,1.59-4.21
		c0-0.71,0.57-0.93,1.08-0.93h1.31c0.63,0,1.14,0.49,1.14,1.09c0,2.24-0.91,4.54-2.44,6.18c-1.88,1.97-4.78,3.11-8.24,3.11
		C223.39,162.62,220.09,160.66,218.1,157.7z"/>
	<path class="st0" d="M244.53,127.37v-3.22c0-0.44,0.4-0.87,0.91-0.87h3.3c0.51,0,0.91,0.44,0.91,0.87v3.22
		c0,0.49-0.4,0.87-0.91,0.87h-3.3C244.93,128.25,244.53,127.87,244.53,127.37z M247.66,162.08h-1.14c-0.8,0-1.14-0.49-1.14-1.09
		v-25.14c0-0.6,0.34-1.09,1.14-1.09h1.14c0.8,0,1.14,0.49,1.14,1.09v25.14C248.8,161.58,248.46,162.08,247.66,162.08z"/>
	<path class="st0" d="M258.69,158.52c-1.82-2.68-2.45-5.25-2.45-10.11c0-4.43,0.68-6.99,2.62-9.89c1.88-2.79,5.06-4.32,9.04-4.32
		c7.11,0,11.49,4.59,11.49,11.97v2.46c0,0.6-0.51,1.09-1.14,1.09h-17.86c-0.34,0-0.57,0.22-0.57,0.55c0,5.85,2.96,9.13,8.19,9.13
		c3.64,0,6.54-1.37,7.62-5.14c0.17-0.6,0.68-0.93,1.31-0.93h1.14c0.68,0,1.08,0.44,0.97,1.09c-0.68,4.86-5.17,8.2-11.03,8.2
		C263.75,162.62,260.51,161.2,258.69,158.52z M275.23,146.67c0.34,0,0.57-0.22,0.57-0.55c0-5.57-2.84-8.69-7.85-8.69
		c-4.95,0-8.07,3.33-8.07,8.69c0,0.33,0.23,0.55,0.57,0.55H275.23z"/>
	<path class="st0" d="M286.83,160.98v-25.14c0-0.6,0.51-1.09,1.14-1.09h0.91c0.34,0,0.57,0.16,0.8,0.38
		c0.29,0.49,0.57,1.09,1.14,1.09c1.53,0,2.05-2.02,7.56-2.02c5.4,0,9.61,3.06,9.61,9.07v17.71c0,0.6-0.51,1.09-1.14,1.09h-1.08
		c-0.62,0-1.14-0.49-1.14-1.09v-17.21c0-4.37-3.13-6.34-7.22-6.34s-7.22,1.97-7.22,6.34v17.21c0,0.6-0.51,1.09-1.14,1.09h-1.08
		C287.34,162.08,286.83,161.58,286.83,160.98z"/>
	<path class="st0" d="M317.12,157.7c-1.82-2.68-1.99-5.36-1.99-9.29c0-3.93,0.17-6.61,1.99-9.29c1.99-2.95,5.29-4.92,9.61-4.92
		c3.13,0,5.86,0.82,7.73,2.46c1.93,1.75,2.96,4.32,2.96,6.83c0,0.6-0.34,1.09-0.97,1.09h-1.42c-0.51,0-1.08-0.27-1.08-0.87
		c0-1.75-0.68-3.61-2.1-4.81c-1.25-0.98-3.01-1.47-5.12-1.47c-3.13,0-5.69,1.47-6.99,4.21c-0.85,1.75-1.03,3.61-1.03,6.78
		c0,3.17,0.17,5.03,1.03,6.78c1.31,2.73,3.87,4.21,6.99,4.21c2.56,0,4.44-0.76,5.57-2.02c1.08-1.2,1.59-2.84,1.59-4.21
		c0-0.71,0.57-0.93,1.08-0.93h1.31c0.62,0,1.14,0.49,1.14,1.09c0,2.24-0.91,4.54-2.44,6.18c-1.88,1.97-4.78,3.11-8.25,3.11
		C322.41,162.62,319.11,160.66,317.12,157.7z"/>
	<path class="st0" d="M345.26,158.52c-1.82-2.68-2.45-5.25-2.45-10.11c0-4.43,0.68-6.99,2.62-9.89c1.88-2.79,5.06-4.32,9.04-4.32
		c7.11,0,11.49,4.59,11.49,11.97v2.46c0,0.6-0.51,1.09-1.14,1.09h-17.86c-0.34,0-0.57,0.22-0.57,0.55c0,5.85,2.96,9.13,8.19,9.13
		c3.64,0,6.54-1.37,7.62-5.14c0.17-0.6,0.68-0.93,1.31-0.93h1.14c0.68,0,1.08,0.44,0.97,1.09c-0.68,4.86-5.17,8.2-11.03,8.2
		C350.32,162.62,347.08,161.2,345.26,158.52z M361.81,146.67c0.34,0,0.57-0.22,0.57-0.55c0-5.57-2.84-8.69-7.85-8.69
		c-4.95,0-8.07,3.33-8.07,8.69c0,0.33,0.23,0.55,0.57,0.55H361.81z"/>
	<path class="st0" d="M371.41,153.17c0-0.6,0.51-1.09,1.14-1.09h1.14c0.62,0,1.14,0.49,1.14,1.09c0,3.99,2.84,6.39,7.62,6.39
		c4.72,0,7.45-1.75,7.45-4.81c0-3.06-1.82-4.26-8.24-5.52c-6.31-1.2-8.99-3.5-8.99-7.71c0-4.26,4.21-7.32,9.95-7.32
		c6.2,0,10.06,3.12,10.06,8.2c0,0.6-0.51,1.09-1.14,1.09h-1.14c-0.62,0-1.14-0.49-1.14-1.09c0-3.5-2.16-5.19-6.65-5.19
		c-3.98,0-6.37,1.64-6.37,4.32c0,2.51,1.65,3.55,7.96,4.97c6.99,1.59,9.1,3.5,9.1,8.25c0,4.81-4.27,7.87-10.86,7.87
		C375.62,162.62,371.41,159.02,371.41,153.17z"/>
</g>
</svg>
